<mxfile host="65bd71144e">
    <diagram id="lo9ecTED2ZbJiqTsaH0u" name="参加ユーザー確認">
        <mxGraphModel dx="825" dy="780" grid="1" gridSize="10" guides="1" tooltips="1" connect="1" arrows="1" fold="1" page="1" pageScale="1" pageWidth="827" pageHeight="1169" math="0" shadow="0">
            <root>
                <mxCell id="0"/>
                <mxCell id="1" parent="0"/>
                <mxCell id="5" style="edgeStyle=none;html=1;" edge="1" parent="1" source="2" target="4">
                    <mxGeometry relative="1" as="geometry"/>
                </mxCell>
                <mxCell id="6" style="edgeStyle=none;html=1;" edge="1" parent="1" source="2" target="3">
                    <mxGeometry relative="1" as="geometry"/>
                </mxCell>
                <mxCell id="2" value="パートナー企業" style="shape=umlActor;verticalLabelPosition=bottom;verticalAlign=top;html=1;" vertex="1" parent="1">
                    <mxGeometry x="80" y="330" width="30" height="60" as="geometry"/>
                </mxCell>
                <mxCell id="yrncN8dw9ijNt2lgbtZi-40" style="edgeStyle=none;html=1;startArrow=none;startFill=0;endArrow=classic;endFill=1;" edge="1" parent="1" source="3" target="yrncN8dw9ijNt2lgbtZi-39">
                    <mxGeometry relative="1" as="geometry"/>
                </mxCell>
                <mxCell id="3" value="イベント情報画面" style="shape=umlBoundary;whiteSpace=wrap;html=1;" vertex="1" parent="1">
                    <mxGeometry x="320" y="390" width="130" height="110" as="geometry"/>
                </mxCell>
                <mxCell id="yrncN8dw9ijNt2lgbtZi-7" style="edgeStyle=none;html=1;startArrow=none;startFill=0;" edge="1" parent="1" source="4" target="yrncN8dw9ijNt2lgbtZi-6">
                    <mxGeometry relative="1" as="geometry">
                        <mxPoint x="440" y="330" as="sourcePoint"/>
                    </mxGeometry>
                </mxCell>
                <mxCell id="4" value="イベント一覧画面" style="shape=umlBoundary;whiteSpace=wrap;html=1;" vertex="1" parent="1">
                    <mxGeometry x="320" y="230" width="130" height="110" as="geometry"/>
                </mxCell>
                <mxCell id="yrncN8dw9ijNt2lgbtZi-8" style="edgeStyle=none;html=1;startArrow=none;startFill=0;endArrow=classic;endFill=1;" edge="1" parent="1" source="yrncN8dw9ijNt2lgbtZi-6" target="3">
                    <mxGeometry relative="1" as="geometry"/>
                </mxCell>
                <mxCell id="yrncN8dw9ijNt2lgbtZi-13" style="edgeStyle=none;html=1;startArrow=classic;startFill=1;" edge="1" parent="1" source="yrncN8dw9ijNt2lgbtZi-6" target="yrncN8dw9ijNt2lgbtZi-18">
                    <mxGeometry relative="1" as="geometry">
                        <mxPoint x="689.9999999999984" y="440" as="targetPoint"/>
                    </mxGeometry>
                </mxCell>
                <mxCell id="yrncN8dw9ijNt2lgbtZi-6" value="イベント情報&lt;br&gt;を取得" style="ellipse;shape=umlControl;whiteSpace=wrap;html=1;" vertex="1" parent="1">
                    <mxGeometry x="530" y="325" width="90" height="100" as="geometry"/>
                </mxCell>
                <mxCell id="yrncN8dw9ijNt2lgbtZi-9" value="ユーザーボタンをクリック▶" style="text;html=1;align=center;verticalAlign=middle;resizable=0;points=[];autosize=1;strokeColor=none;fillColor=none;" vertex="1" parent="1">
                    <mxGeometry x="135" y="413" width="180" height="30" as="geometry"/>
                </mxCell>
                <mxCell id="yrncN8dw9ijNt2lgbtZi-12" value="イベントを選択▶" style="text;html=1;align=center;verticalAlign=middle;resizable=0;points=[];autosize=1;strokeColor=none;fillColor=none;" vertex="1" parent="1">
                    <mxGeometry x="135" y="300" width="120" height="30" as="geometry"/>
                </mxCell>
                <mxCell id="yrncN8dw9ijNt2lgbtZi-16" style="edgeStyle=none;html=1;startArrow=classic;startFill=1;" edge="1" parent="1" source="yrncN8dw9ijNt2lgbtZi-28" target="yrncN8dw9ijNt2lgbtZi-18">
                    <mxGeometry relative="1" as="geometry"/>
                </mxCell>
                <mxCell id="yrncN8dw9ijNt2lgbtZi-18" value="イベント情報" style="ellipse;shape=umlEntity;whiteSpace=wrap;html=1;" vertex="1" parent="1">
                    <mxGeometry x="827" y="235" width="90" height="90" as="geometry"/>
                </mxCell>
                <mxCell id="yrncN8dw9ijNt2lgbtZi-21" value="イベント参加&lt;br&gt;ユーザー一覧画面" style="shape=umlBoundary;whiteSpace=wrap;html=1;" vertex="1" parent="1">
                    <mxGeometry x="720" y="485" width="130" height="110" as="geometry"/>
                </mxCell>
                <mxCell id="yrncN8dw9ijNt2lgbtZi-29" style="edgeStyle=none;html=1;startArrow=none;startFill=0;endArrow=classic;endFill=1;" edge="1" parent="1" source="yrncN8dw9ijNt2lgbtZi-28" target="4">
                    <mxGeometry relative="1" as="geometry"/>
                </mxCell>
                <mxCell id="yrncN8dw9ijNt2lgbtZi-28" value="イベント情報&lt;br&gt;を取得" style="ellipse;shape=umlControl;whiteSpace=wrap;html=1;" vertex="1" parent="1">
                    <mxGeometry x="530" y="140" width="90" height="100" as="geometry"/>
                </mxCell>
                <mxCell id="yrncN8dw9ijNt2lgbtZi-32" value="イベント名、開催日を取得▶" style="text;html=1;align=center;verticalAlign=middle;resizable=0;points=[];autosize=1;strokeColor=none;fillColor=none;" vertex="1" parent="1">
                    <mxGeometry x="653" y="193" width="180" height="30" as="geometry"/>
                </mxCell>
                <mxCell id="yrncN8dw9ijNt2lgbtZi-33" value="イベント情報をすべて取得▶" style="text;html=1;align=center;verticalAlign=middle;resizable=0;points=[];autosize=1;strokeColor=none;fillColor=none;" vertex="1" parent="1">
                    <mxGeometry x="655" y="340" width="180" height="30" as="geometry"/>
                </mxCell>
                <mxCell id="yrncN8dw9ijNt2lgbtZi-34" style="edgeStyle=none;html=1;startArrow=none;startFill=0;" edge="1" parent="1" target="yrncN8dw9ijNt2lgbtZi-36" source="3">
                    <mxGeometry relative="1" as="geometry">
                        <mxPoint x="460" y="469.9975979220752" as="sourcePoint"/>
                    </mxGeometry>
                </mxCell>
                <mxCell id="yrncN8dw9ijNt2lgbtZi-35" style="edgeStyle=none;html=1;startArrow=none;startFill=0;endArrow=classic;endFill=1;" edge="1" parent="1" source="yrncN8dw9ijNt2lgbtZi-36" target="yrncN8dw9ijNt2lgbtZi-21">
                    <mxGeometry relative="1" as="geometry">
                        <mxPoint x="460" y="580.4266666666668" as="targetPoint"/>
                    </mxGeometry>
                </mxCell>
                <mxCell id="yrncN8dw9ijNt2lgbtZi-36" value="表示" style="ellipse;shape=umlControl;whiteSpace=wrap;html=1;" vertex="1" parent="1">
                    <mxGeometry x="530" y="490.00000000000006" width="90" height="100" as="geometry"/>
                </mxCell>
                <mxCell id="yrncN8dw9ijNt2lgbtZi-37" value="エラー表示画面" style="shape=umlBoundary;whiteSpace=wrap;html=1;" vertex="1" parent="1">
                    <mxGeometry x="720" y="660" width="130" height="110" as="geometry"/>
                </mxCell>
                <mxCell id="yrncN8dw9ijNt2lgbtZi-38" style="edgeStyle=none;html=1;startArrow=none;startFill=0;endArrow=classic;endFill=1;" edge="1" parent="1" source="yrncN8dw9ijNt2lgbtZi-39" target="yrncN8dw9ijNt2lgbtZi-37">
                    <mxGeometry relative="1" as="geometry">
                        <mxPoint x="370" y="735.4266666666668" as="targetPoint"/>
                    </mxGeometry>
                </mxCell>
                <mxCell id="yrncN8dw9ijNt2lgbtZi-39" value="エラー表示" style="ellipse;shape=umlControl;whiteSpace=wrap;html=1;" vertex="1" parent="1">
                    <mxGeometry x="490" y="630" width="90" height="100" as="geometry"/>
                </mxCell>
            </root>
        </mxGraphModel>
    </diagram>
    <diagram name="イベント削除" id="rnLu_JyJPi8s-iRv2kZq">
        <mxGraphModel dx="964" dy="729" grid="1" gridSize="10" guides="1" tooltips="1" connect="1" arrows="1" fold="1" page="1" pageScale="1" pageWidth="827" pageHeight="1169" math="0" shadow="0">
            <root>
                <mxCell id="-73prBt3MbYRAjmcBL9d-0"/>
                <mxCell id="-73prBt3MbYRAjmcBL9d-1" parent="-73prBt3MbYRAjmcBL9d-0"/>
                <mxCell id="gHfTH_GcfwK2YYJTePz7-0" value="ユーザー" style="shape=umlActor;verticalLabelPosition=bottom;verticalAlign=top;html=1;outlineConnect=0;" vertex="1" parent="-73prBt3MbYRAjmcBL9d-1">
                    <mxGeometry x="30" y="190" width="30" height="60" as="geometry"/>
                </mxCell>
                <mxCell id="gHfTH_GcfwK2YYJTePz7-1" value="グループ作成画面" style="shape=umlBoundary;whiteSpace=wrap;html=1;" vertex="1" parent="-73prBt3MbYRAjmcBL9d-1">
                    <mxGeometry x="175" y="190" width="100" height="80" as="geometry"/>
                </mxCell>
                <mxCell id="gHfTH_GcfwK2YYJTePz7-2" value="" style="endArrow=classic;html=1;" edge="1" parent="-73prBt3MbYRAjmcBL9d-1">
                    <mxGeometry width="50" height="50" relative="1" as="geometry">
                        <mxPoint x="80" y="230" as="sourcePoint"/>
                        <mxPoint x="150" y="230" as="targetPoint"/>
                    </mxGeometry>
                </mxCell>
                <mxCell id="gHfTH_GcfwK2YYJTePz7-3" value="" style="endArrow=classic;html=1;" edge="1" parent="-73prBt3MbYRAjmcBL9d-1">
                    <mxGeometry width="50" height="50" relative="1" as="geometry">
                        <mxPoint x="290" y="229.47000000000003" as="sourcePoint"/>
                        <mxPoint x="360" y="229.47000000000003" as="targetPoint"/>
                    </mxGeometry>
                </mxCell>
                <mxCell id="gHfTH_GcfwK2YYJTePz7-4" value="グループ画面" style="shape=umlBoundary;whiteSpace=wrap;html=1;" vertex="1" parent="-73prBt3MbYRAjmcBL9d-1">
                    <mxGeometry x="110" y="340" width="100" height="80" as="geometry"/>
                </mxCell>
                <mxCell id="gHfTH_GcfwK2YYJTePz7-5" value="エラー画面" style="shape=umlBoundary;whiteSpace=wrap;html=1;" vertex="1" parent="-73prBt3MbYRAjmcBL9d-1">
                    <mxGeometry x="130" y="430" width="100" height="80" as="geometry"/>
                </mxCell>
                <mxCell id="gHfTH_GcfwK2YYJTePz7-6" value="" style="endArrow=classic;html=1;" edge="1" parent="-73prBt3MbYRAjmcBL9d-1" target="gHfTH_GcfwK2YYJTePz7-14">
                    <mxGeometry width="50" height="50" relative="1" as="geometry">
                        <mxPoint x="380" y="275" as="sourcePoint"/>
                        <mxPoint x="412" y="315" as="targetPoint"/>
                    </mxGeometry>
                </mxCell>
                <mxCell id="gHfTH_GcfwK2YYJTePz7-7" value="" style="endArrow=classic;html=1;" edge="1" parent="-73prBt3MbYRAjmcBL9d-1" target="gHfTH_GcfwK2YYJTePz7-15">
                    <mxGeometry width="50" height="50" relative="1" as="geometry">
                        <mxPoint x="400" y="280" as="sourcePoint"/>
                        <mxPoint x="370" y="360" as="targetPoint"/>
                    </mxGeometry>
                </mxCell>
                <mxCell id="gHfTH_GcfwK2YYJTePz7-8" value="型式間違い入力" style="edgeLabel;html=1;align=center;verticalAlign=middle;resizable=0;points=[];" vertex="1" connectable="0" parent="gHfTH_GcfwK2YYJTePz7-7">
                    <mxGeometry x="-0.4064" y="1" relative="1" as="geometry">
                        <mxPoint as="offset"/>
                    </mxGeometry>
                </mxCell>
                <mxCell id="gHfTH_GcfwK2YYJTePz7-9" value="" style="endArrow=classic;html=1;" edge="1" parent="-73prBt3MbYRAjmcBL9d-1">
                    <mxGeometry width="50" height="50" relative="1" as="geometry">
                        <mxPoint x="265" y="350" as="sourcePoint"/>
                        <mxPoint x="215" y="380" as="targetPoint"/>
                    </mxGeometry>
                </mxCell>
                <mxCell id="gHfTH_GcfwK2YYJTePz7-10" value="グループ情報登録" style="ellipse;shape=umlControl;whiteSpace=wrap;html=1;" vertex="1" parent="-73prBt3MbYRAjmcBL9d-1">
                    <mxGeometry x="379" y="190" width="70" height="80" as="geometry"/>
                </mxCell>
                <mxCell id="gHfTH_GcfwK2YYJTePz7-11" value="グループ情報入力▶" style="text;html=1;align=center;verticalAlign=middle;resizable=0;points=[];autosize=1;strokeColor=none;fillColor=none;" vertex="1" parent="-73prBt3MbYRAjmcBL9d-1">
                    <mxGeometry x="50" y="205" width="130" height="30" as="geometry"/>
                </mxCell>
                <mxCell id="gHfTH_GcfwK2YYJTePz7-12" value="" style="endArrow=classic;html=1;" edge="1" parent="-73prBt3MbYRAjmcBL9d-1" target="gHfTH_GcfwK2YYJTePz7-5">
                    <mxGeometry width="50" height="50" relative="1" as="geometry">
                        <mxPoint x="339" y="430" as="sourcePoint"/>
                        <mxPoint x="379" y="438.95000000000005" as="targetPoint"/>
                    </mxGeometry>
                </mxCell>
                <mxCell id="gHfTH_GcfwK2YYJTePz7-13" value="作成" style="ellipse;shape=umlEntity;whiteSpace=wrap;html=1;" vertex="1" parent="-73prBt3MbYRAjmcBL9d-1">
                    <mxGeometry x="530" y="190" width="80" height="80" as="geometry"/>
                </mxCell>
                <mxCell id="gHfTH_GcfwK2YYJTePz7-14" value="表示" style="ellipse;shape=umlControl;whiteSpace=wrap;html=1;" vertex="1" parent="-73prBt3MbYRAjmcBL9d-1">
                    <mxGeometry x="275" y="290" width="70" height="80" as="geometry"/>
                </mxCell>
                <mxCell id="gHfTH_GcfwK2YYJTePz7-15" value="エラー画面表示" style="ellipse;shape=umlControl;whiteSpace=wrap;html=1;" vertex="1" parent="-73prBt3MbYRAjmcBL9d-1">
                    <mxGeometry x="309" y="400" width="70" height="80" as="geometry"/>
                </mxCell>
                <mxCell id="gHfTH_GcfwK2YYJTePz7-16" value="正常終了時▶" style="text;html=1;align=center;verticalAlign=middle;resizable=0;points=[];autosize=1;strokeColor=none;fillColor=none;" vertex="1" parent="-73prBt3MbYRAjmcBL9d-1">
                    <mxGeometry x="289" y="260" width="100" height="30" as="geometry"/>
                </mxCell>
                <mxCell id="gHfTH_GcfwK2YYJTePz7-17" value="" style="endArrow=classic;startArrow=classic;html=1;" edge="1" parent="-73prBt3MbYRAjmcBL9d-1">
                    <mxGeometry width="50" height="50" relative="1" as="geometry">
                        <mxPoint x="460" y="230" as="sourcePoint"/>
                        <mxPoint x="520" y="230" as="targetPoint"/>
                    </mxGeometry>
                </mxCell>
            </root>
        </mxGraphModel>
    </diagram>
    <diagram name="イベント変更" id="9E8bFEKPwnGp2U-7AOyr">
        <mxGraphModel dx="1607" dy="1216" grid="1" gridSize="10" guides="1" tooltips="1" connect="1" arrows="1" fold="1" page="1" pageScale="1" pageWidth="827" pageHeight="1169" math="0" shadow="0">
            <root>
                <mxCell id="z5fIUt45dOqZRKFa96BM-0"/>
                <mxCell id="z5fIUt45dOqZRKFa96BM-1" parent="z5fIUt45dOqZRKFa96BM-0"/>
                <mxCell id="9AjLaYQQxTT-ynRWI9Y9-0" value="ユーザー" style="shape=umlActor;verticalLabelPosition=bottom;verticalAlign=top;html=1;outlineConnect=0;" vertex="1" parent="z5fIUt45dOqZRKFa96BM-1">
                    <mxGeometry x="30" y="190" width="30" height="60" as="geometry"/>
                </mxCell>
                <mxCell id="9AjLaYQQxTT-ynRWI9Y9-1" value="グループ作成画面" style="shape=umlBoundary;whiteSpace=wrap;html=1;" vertex="1" parent="z5fIUt45dOqZRKFa96BM-1">
                    <mxGeometry x="175" y="190" width="100" height="80" as="geometry"/>
                </mxCell>
                <mxCell id="9AjLaYQQxTT-ynRWI9Y9-2" value="" style="endArrow=classic;html=1;" edge="1" parent="z5fIUt45dOqZRKFa96BM-1">
                    <mxGeometry width="50" height="50" relative="1" as="geometry">
                        <mxPoint x="80" y="230" as="sourcePoint"/>
                        <mxPoint x="150" y="230" as="targetPoint"/>
                    </mxGeometry>
                </mxCell>
                <mxCell id="9AjLaYQQxTT-ynRWI9Y9-3" value="" style="endArrow=classic;html=1;" edge="1" parent="z5fIUt45dOqZRKFa96BM-1">
                    <mxGeometry width="50" height="50" relative="1" as="geometry">
                        <mxPoint x="290" y="229.47000000000003" as="sourcePoint"/>
                        <mxPoint x="360" y="229.47000000000003" as="targetPoint"/>
                    </mxGeometry>
                </mxCell>
                <mxCell id="9AjLaYQQxTT-ynRWI9Y9-4" value="グループ画面" style="shape=umlBoundary;whiteSpace=wrap;html=1;" vertex="1" parent="z5fIUt45dOqZRKFa96BM-1">
                    <mxGeometry x="110" y="340" width="100" height="80" as="geometry"/>
                </mxCell>
                <mxCell id="9AjLaYQQxTT-ynRWI9Y9-5" value="エラー画面" style="shape=umlBoundary;whiteSpace=wrap;html=1;" vertex="1" parent="z5fIUt45dOqZRKFa96BM-1">
                    <mxGeometry x="130" y="430" width="100" height="80" as="geometry"/>
                </mxCell>
                <mxCell id="9AjLaYQQxTT-ynRWI9Y9-6" value="" style="endArrow=classic;html=1;" edge="1" parent="z5fIUt45dOqZRKFa96BM-1" target="9AjLaYQQxTT-ynRWI9Y9-14">
                    <mxGeometry width="50" height="50" relative="1" as="geometry">
                        <mxPoint x="380" y="275" as="sourcePoint"/>
                        <mxPoint x="412" y="315" as="targetPoint"/>
                    </mxGeometry>
                </mxCell>
                <mxCell id="9AjLaYQQxTT-ynRWI9Y9-7" value="" style="endArrow=classic;html=1;" edge="1" parent="z5fIUt45dOqZRKFa96BM-1" target="9AjLaYQQxTT-ynRWI9Y9-15">
                    <mxGeometry width="50" height="50" relative="1" as="geometry">
                        <mxPoint x="400" y="280" as="sourcePoint"/>
                        <mxPoint x="370" y="360" as="targetPoint"/>
                    </mxGeometry>
                </mxCell>
                <mxCell id="9AjLaYQQxTT-ynRWI9Y9-8" value="型式間違い入力" style="edgeLabel;html=1;align=center;verticalAlign=middle;resizable=0;points=[];" vertex="1" connectable="0" parent="9AjLaYQQxTT-ynRWI9Y9-7">
                    <mxGeometry x="-0.4064" y="1" relative="1" as="geometry">
                        <mxPoint as="offset"/>
                    </mxGeometry>
                </mxCell>
                <mxCell id="9AjLaYQQxTT-ynRWI9Y9-9" value="" style="endArrow=classic;html=1;" edge="1" parent="z5fIUt45dOqZRKFa96BM-1">
                    <mxGeometry width="50" height="50" relative="1" as="geometry">
                        <mxPoint x="265" y="350" as="sourcePoint"/>
                        <mxPoint x="215" y="380" as="targetPoint"/>
                    </mxGeometry>
                </mxCell>
                <mxCell id="9AjLaYQQxTT-ynRWI9Y9-10" value="グループ情報登録" style="ellipse;shape=umlControl;whiteSpace=wrap;html=1;" vertex="1" parent="z5fIUt45dOqZRKFa96BM-1">
                    <mxGeometry x="379" y="190" width="70" height="80" as="geometry"/>
                </mxCell>
                <mxCell id="9AjLaYQQxTT-ynRWI9Y9-11" value="グループ情報入力▶" style="text;html=1;align=center;verticalAlign=middle;resizable=0;points=[];autosize=1;strokeColor=none;fillColor=none;" vertex="1" parent="z5fIUt45dOqZRKFa96BM-1">
                    <mxGeometry x="50" y="205" width="130" height="30" as="geometry"/>
                </mxCell>
                <mxCell id="9AjLaYQQxTT-ynRWI9Y9-12" value="" style="endArrow=classic;html=1;" edge="1" parent="z5fIUt45dOqZRKFa96BM-1" target="9AjLaYQQxTT-ynRWI9Y9-5">
                    <mxGeometry width="50" height="50" relative="1" as="geometry">
                        <mxPoint x="339" y="430" as="sourcePoint"/>
                        <mxPoint x="379" y="438.95000000000005" as="targetPoint"/>
                    </mxGeometry>
                </mxCell>
                <mxCell id="9AjLaYQQxTT-ynRWI9Y9-13" value="作成" style="ellipse;shape=umlEntity;whiteSpace=wrap;html=1;" vertex="1" parent="z5fIUt45dOqZRKFa96BM-1">
                    <mxGeometry x="530" y="190" width="80" height="80" as="geometry"/>
                </mxCell>
                <mxCell id="9AjLaYQQxTT-ynRWI9Y9-14" value="表示" style="ellipse;shape=umlControl;whiteSpace=wrap;html=1;" vertex="1" parent="z5fIUt45dOqZRKFa96BM-1">
                    <mxGeometry x="275" y="290" width="70" height="80" as="geometry"/>
                </mxCell>
                <mxCell id="9AjLaYQQxTT-ynRWI9Y9-15" value="エラー画面表示" style="ellipse;shape=umlControl;whiteSpace=wrap;html=1;" vertex="1" parent="z5fIUt45dOqZRKFa96BM-1">
                    <mxGeometry x="309" y="400" width="70" height="80" as="geometry"/>
                </mxCell>
                <mxCell id="9AjLaYQQxTT-ynRWI9Y9-16" value="正常終了時▶" style="text;html=1;align=center;verticalAlign=middle;resizable=0;points=[];autosize=1;strokeColor=none;fillColor=none;" vertex="1" parent="z5fIUt45dOqZRKFa96BM-1">
                    <mxGeometry x="289" y="260" width="100" height="30" as="geometry"/>
                </mxCell>
                <mxCell id="9AjLaYQQxTT-ynRWI9Y9-17" value="" style="endArrow=classic;startArrow=classic;html=1;" edge="1" parent="z5fIUt45dOqZRKFa96BM-1">
                    <mxGeometry width="50" height="50" relative="1" as="geometry">
                        <mxPoint x="460" y="230" as="sourcePoint"/>
                        <mxPoint x="520" y="230" as="targetPoint"/>
                    </mxGeometry>
                </mxCell>
            </root>
        </mxGraphModel>
    </diagram>
    <diagram name="イベント作成" id="K8Sf7UMt0nzCbzTLBDKn">
        <mxGraphModel dx="723" dy="547" grid="1" gridSize="10" guides="1" tooltips="1" connect="1" arrows="1" fold="1" page="1" pageScale="1" pageWidth="827" pageHeight="1169" math="0" shadow="0">
            <root>
                <mxCell id="TzWQQSuRSs19dflzYeYl-0"/>
                <mxCell id="TzWQQSuRSs19dflzYeYl-1" parent="TzWQQSuRSs19dflzYeYl-0"/>
                <mxCell id="xqhpOl5O25u2zFU5XClX-0" value="ユーザー" style="shape=umlActor;verticalLabelPosition=bottom;verticalAlign=top;html=1;outlineConnect=0;" vertex="1" parent="TzWQQSuRSs19dflzYeYl-1">
                    <mxGeometry x="30" y="190" width="30" height="60" as="geometry"/>
                </mxCell>
                <mxCell id="xqhpOl5O25u2zFU5XClX-1" value="グループ作成画面" style="shape=umlBoundary;whiteSpace=wrap;html=1;" vertex="1" parent="TzWQQSuRSs19dflzYeYl-1">
                    <mxGeometry x="175" y="190" width="100" height="80" as="geometry"/>
                </mxCell>
                <mxCell id="xqhpOl5O25u2zFU5XClX-2" value="" style="endArrow=classic;html=1;" edge="1" parent="TzWQQSuRSs19dflzYeYl-1">
                    <mxGeometry width="50" height="50" relative="1" as="geometry">
                        <mxPoint x="80" y="230" as="sourcePoint"/>
                        <mxPoint x="150" y="230" as="targetPoint"/>
                    </mxGeometry>
                </mxCell>
                <mxCell id="xqhpOl5O25u2zFU5XClX-3" value="" style="endArrow=classic;html=1;" edge="1" parent="TzWQQSuRSs19dflzYeYl-1">
                    <mxGeometry width="50" height="50" relative="1" as="geometry">
                        <mxPoint x="290" y="229.47000000000003" as="sourcePoint"/>
                        <mxPoint x="360" y="229.47000000000003" as="targetPoint"/>
                    </mxGeometry>
                </mxCell>
                <mxCell id="xqhpOl5O25u2zFU5XClX-4" value="グループ画面" style="shape=umlBoundary;whiteSpace=wrap;html=1;" vertex="1" parent="TzWQQSuRSs19dflzYeYl-1">
                    <mxGeometry x="110" y="340" width="100" height="80" as="geometry"/>
                </mxCell>
                <mxCell id="xqhpOl5O25u2zFU5XClX-5" value="エラー画面" style="shape=umlBoundary;whiteSpace=wrap;html=1;" vertex="1" parent="TzWQQSuRSs19dflzYeYl-1">
                    <mxGeometry x="130" y="430" width="100" height="80" as="geometry"/>
                </mxCell>
                <mxCell id="xqhpOl5O25u2zFU5XClX-6" value="" style="endArrow=classic;html=1;" edge="1" parent="TzWQQSuRSs19dflzYeYl-1" target="xqhpOl5O25u2zFU5XClX-14">
                    <mxGeometry width="50" height="50" relative="1" as="geometry">
                        <mxPoint x="380" y="275" as="sourcePoint"/>
                        <mxPoint x="412" y="315" as="targetPoint"/>
                    </mxGeometry>
                </mxCell>
                <mxCell id="xqhpOl5O25u2zFU5XClX-7" value="" style="endArrow=classic;html=1;" edge="1" parent="TzWQQSuRSs19dflzYeYl-1" target="xqhpOl5O25u2zFU5XClX-15">
                    <mxGeometry width="50" height="50" relative="1" as="geometry">
                        <mxPoint x="400" y="280" as="sourcePoint"/>
                        <mxPoint x="370" y="360" as="targetPoint"/>
                    </mxGeometry>
                </mxCell>
                <mxCell id="xqhpOl5O25u2zFU5XClX-8" value="型式間違い入力" style="edgeLabel;html=1;align=center;verticalAlign=middle;resizable=0;points=[];" vertex="1" connectable="0" parent="xqhpOl5O25u2zFU5XClX-7">
                    <mxGeometry x="-0.4064" y="1" relative="1" as="geometry">
                        <mxPoint as="offset"/>
                    </mxGeometry>
                </mxCell>
                <mxCell id="xqhpOl5O25u2zFU5XClX-9" value="" style="endArrow=classic;html=1;" edge="1" parent="TzWQQSuRSs19dflzYeYl-1">
                    <mxGeometry width="50" height="50" relative="1" as="geometry">
                        <mxPoint x="265" y="350" as="sourcePoint"/>
                        <mxPoint x="215" y="380" as="targetPoint"/>
                    </mxGeometry>
                </mxCell>
                <mxCell id="xqhpOl5O25u2zFU5XClX-10" value="グループ情報登録" style="ellipse;shape=umlControl;whiteSpace=wrap;html=1;" vertex="1" parent="TzWQQSuRSs19dflzYeYl-1">
                    <mxGeometry x="379" y="190" width="70" height="80" as="geometry"/>
                </mxCell>
                <mxCell id="xqhpOl5O25u2zFU5XClX-11" value="グループ情報入力▶" style="text;html=1;align=center;verticalAlign=middle;resizable=0;points=[];autosize=1;strokeColor=none;fillColor=none;" vertex="1" parent="TzWQQSuRSs19dflzYeYl-1">
                    <mxGeometry x="50" y="205" width="130" height="30" as="geometry"/>
                </mxCell>
                <mxCell id="xqhpOl5O25u2zFU5XClX-12" value="" style="endArrow=classic;html=1;" edge="1" parent="TzWQQSuRSs19dflzYeYl-1" target="xqhpOl5O25u2zFU5XClX-5">
                    <mxGeometry width="50" height="50" relative="1" as="geometry">
                        <mxPoint x="339" y="430" as="sourcePoint"/>
                        <mxPoint x="379" y="438.95000000000005" as="targetPoint"/>
                    </mxGeometry>
                </mxCell>
                <mxCell id="xqhpOl5O25u2zFU5XClX-13" value="作成" style="ellipse;shape=umlEntity;whiteSpace=wrap;html=1;" vertex="1" parent="TzWQQSuRSs19dflzYeYl-1">
                    <mxGeometry x="530" y="190" width="80" height="80" as="geometry"/>
                </mxCell>
                <mxCell id="xqhpOl5O25u2zFU5XClX-14" value="表示" style="ellipse;shape=umlControl;whiteSpace=wrap;html=1;" vertex="1" parent="TzWQQSuRSs19dflzYeYl-1">
                    <mxGeometry x="275" y="290" width="70" height="80" as="geometry"/>
                </mxCell>
                <mxCell id="xqhpOl5O25u2zFU5XClX-15" value="エラー画面表示" style="ellipse;shape=umlControl;whiteSpace=wrap;html=1;" vertex="1" parent="TzWQQSuRSs19dflzYeYl-1">
                    <mxGeometry x="309" y="400" width="70" height="80" as="geometry"/>
                </mxCell>
                <mxCell id="xqhpOl5O25u2zFU5XClX-16" value="正常終了時▶" style="text;html=1;align=center;verticalAlign=middle;resizable=0;points=[];autosize=1;strokeColor=none;fillColor=none;" vertex="1" parent="TzWQQSuRSs19dflzYeYl-1">
                    <mxGeometry x="289" y="260" width="100" height="30" as="geometry"/>
                </mxCell>
                <mxCell id="xqhpOl5O25u2zFU5XClX-17" value="" style="endArrow=classic;startArrow=classic;html=1;" edge="1" parent="TzWQQSuRSs19dflzYeYl-1">
                    <mxGeometry width="50" height="50" relative="1" as="geometry">
                        <mxPoint x="460" y="230" as="sourcePoint"/>
                        <mxPoint x="520" y="230" as="targetPoint"/>
                    </mxGeometry>
                </mxCell>
            </root>
        </mxGraphModel>
    </diagram>
    <diagram name="ユーザー異常確認" id="qO4JWe7lkhdXT_vdiiTK">
        <mxGraphModel dx="698" dy="660" grid="1" gridSize="10" guides="1" tooltips="1" connect="1" arrows="1" fold="1" page="1" pageScale="1" pageWidth="827" pageHeight="1169" math="0" shadow="0">
            <root>
                <mxCell id="6How5EvlI2Z_iBBIhnAw-0"/>
                <mxCell id="6How5EvlI2Z_iBBIhnAw-1" parent="6How5EvlI2Z_iBBIhnAw-0"/>
                <mxCell id="eyBFVL7DAIwZeHv-XXco-25" style="edgeStyle=none;html=1;" edge="1" parent="6How5EvlI2Z_iBBIhnAw-1" source="eyBFVL7DAIwZeHv-XXco-27" target="eyBFVL7DAIwZeHv-XXco-31">
                    <mxGeometry relative="1" as="geometry"/>
                </mxCell>
                <mxCell id="eyBFVL7DAIwZeHv-XXco-26" style="edgeStyle=none;html=1;" edge="1" parent="6How5EvlI2Z_iBBIhnAw-1" source="eyBFVL7DAIwZeHv-XXco-27" target="eyBFVL7DAIwZeHv-XXco-29">
                    <mxGeometry relative="1" as="geometry"/>
                </mxCell>
                <mxCell id="eyBFVL7DAIwZeHv-XXco-27" value="パートナー企業" style="shape=umlActor;verticalLabelPosition=bottom;verticalAlign=top;html=1;" vertex="1" parent="6How5EvlI2Z_iBBIhnAw-1">
                    <mxGeometry x="90" y="340" width="30" height="60" as="geometry"/>
                </mxCell>
                <mxCell id="eyBFVL7DAIwZeHv-XXco-28" style="edgeStyle=none;html=1;startArrow=none;startFill=0;endArrow=classic;endFill=1;" edge="1" parent="6How5EvlI2Z_iBBIhnAw-1" source="eyBFVL7DAIwZeHv-XXco-29" target="eyBFVL7DAIwZeHv-XXco-49">
                    <mxGeometry relative="1" as="geometry"/>
                </mxCell>
                <mxCell id="eyBFVL7DAIwZeHv-XXco-29" value="イベント情報画面" style="shape=umlBoundary;whiteSpace=wrap;html=1;" vertex="1" parent="6How5EvlI2Z_iBBIhnAw-1">
                    <mxGeometry x="330" y="400" width="130" height="110" as="geometry"/>
                </mxCell>
                <mxCell id="eyBFVL7DAIwZeHv-XXco-30" style="edgeStyle=none;html=1;startArrow=none;startFill=0;" edge="1" parent="6How5EvlI2Z_iBBIhnAw-1" source="eyBFVL7DAIwZeHv-XXco-31" target="eyBFVL7DAIwZeHv-XXco-34">
                    <mxGeometry relative="1" as="geometry">
                        <mxPoint x="450" y="340" as="sourcePoint"/>
                    </mxGeometry>
                </mxCell>
                <mxCell id="eyBFVL7DAIwZeHv-XXco-31" value="イベント一覧画面" style="shape=umlBoundary;whiteSpace=wrap;html=1;" vertex="1" parent="6How5EvlI2Z_iBBIhnAw-1">
                    <mxGeometry x="330" y="240" width="130" height="110" as="geometry"/>
                </mxCell>
                <mxCell id="eyBFVL7DAIwZeHv-XXco-32" style="edgeStyle=none;html=1;startArrow=none;startFill=0;endArrow=classic;endFill=1;" edge="1" parent="6How5EvlI2Z_iBBIhnAw-1" source="eyBFVL7DAIwZeHv-XXco-34" target="eyBFVL7DAIwZeHv-XXco-29">
                    <mxGeometry relative="1" as="geometry"/>
                </mxCell>
                <mxCell id="eyBFVL7DAIwZeHv-XXco-33" style="edgeStyle=none;html=1;startArrow=classic;startFill=1;" edge="1" parent="6How5EvlI2Z_iBBIhnAw-1" source="eyBFVL7DAIwZeHv-XXco-34" target="eyBFVL7DAIwZeHv-XXco-38">
                    <mxGeometry relative="1" as="geometry">
                        <mxPoint x="699.9999999999984" y="450" as="targetPoint"/>
                    </mxGeometry>
                </mxCell>
                <mxCell id="eyBFVL7DAIwZeHv-XXco-34" value="イベント情報&lt;br&gt;を取得" style="ellipse;shape=umlControl;whiteSpace=wrap;html=1;" vertex="1" parent="6How5EvlI2Z_iBBIhnAw-1">
                    <mxGeometry x="540" y="335" width="90" height="100" as="geometry"/>
                </mxCell>
                <mxCell id="eyBFVL7DAIwZeHv-XXco-35" value="ユーザーボタンをクリック▶" style="text;html=1;align=center;verticalAlign=middle;resizable=0;points=[];autosize=1;strokeColor=none;fillColor=none;" vertex="1" parent="6How5EvlI2Z_iBBIhnAw-1">
                    <mxGeometry x="145" y="423" width="180" height="30" as="geometry"/>
                </mxCell>
                <mxCell id="eyBFVL7DAIwZeHv-XXco-36" value="イベントを選択▶" style="text;html=1;align=center;verticalAlign=middle;resizable=0;points=[];autosize=1;strokeColor=none;fillColor=none;" vertex="1" parent="6How5EvlI2Z_iBBIhnAw-1">
                    <mxGeometry x="145" y="310" width="120" height="30" as="geometry"/>
                </mxCell>
                <mxCell id="eyBFVL7DAIwZeHv-XXco-37" style="edgeStyle=none;html=1;startArrow=classic;startFill=1;" edge="1" parent="6How5EvlI2Z_iBBIhnAw-1" source="eyBFVL7DAIwZeHv-XXco-41" target="eyBFVL7DAIwZeHv-XXco-38">
                    <mxGeometry relative="1" as="geometry"/>
                </mxCell>
                <mxCell id="eyBFVL7DAIwZeHv-XXco-38" value="イベント情報" style="ellipse;shape=umlEntity;whiteSpace=wrap;html=1;" vertex="1" parent="6How5EvlI2Z_iBBIhnAw-1">
                    <mxGeometry x="837" y="245" width="90" height="90" as="geometry"/>
                </mxCell>
                <mxCell id="eyBFVL7DAIwZeHv-XXco-39" value="イベント参加&lt;br&gt;ユーザー一覧画面" style="shape=umlBoundary;whiteSpace=wrap;html=1;" vertex="1" parent="6How5EvlI2Z_iBBIhnAw-1">
                    <mxGeometry x="730" y="495" width="130" height="110" as="geometry"/>
                </mxCell>
                <mxCell id="eyBFVL7DAIwZeHv-XXco-40" style="edgeStyle=none;html=1;startArrow=none;startFill=0;endArrow=classic;endFill=1;" edge="1" parent="6How5EvlI2Z_iBBIhnAw-1" source="eyBFVL7DAIwZeHv-XXco-41" target="eyBFVL7DAIwZeHv-XXco-31">
                    <mxGeometry relative="1" as="geometry"/>
                </mxCell>
                <mxCell id="eyBFVL7DAIwZeHv-XXco-41" value="イベント情報&lt;br&gt;を取得" style="ellipse;shape=umlControl;whiteSpace=wrap;html=1;" vertex="1" parent="6How5EvlI2Z_iBBIhnAw-1">
                    <mxGeometry x="540" y="150" width="90" height="100" as="geometry"/>
                </mxCell>
                <mxCell id="eyBFVL7DAIwZeHv-XXco-42" value="イベント名、開催日を取得▶" style="text;html=1;align=center;verticalAlign=middle;resizable=0;points=[];autosize=1;strokeColor=none;fillColor=none;" vertex="1" parent="6How5EvlI2Z_iBBIhnAw-1">
                    <mxGeometry x="663" y="203" width="180" height="30" as="geometry"/>
                </mxCell>
                <mxCell id="eyBFVL7DAIwZeHv-XXco-43" value="イベント情報をすべて取得▶" style="text;html=1;align=center;verticalAlign=middle;resizable=0;points=[];autosize=1;strokeColor=none;fillColor=none;" vertex="1" parent="6How5EvlI2Z_iBBIhnAw-1">
                    <mxGeometry x="665" y="350" width="180" height="30" as="geometry"/>
                </mxCell>
                <mxCell id="eyBFVL7DAIwZeHv-XXco-44" style="edgeStyle=none;html=1;startArrow=none;startFill=0;" edge="1" parent="6How5EvlI2Z_iBBIhnAw-1" source="eyBFVL7DAIwZeHv-XXco-29" target="eyBFVL7DAIwZeHv-XXco-46">
                    <mxGeometry relative="1" as="geometry">
                        <mxPoint x="470" y="479.9975979220752" as="sourcePoint"/>
                    </mxGeometry>
                </mxCell>
                <mxCell id="eyBFVL7DAIwZeHv-XXco-45" style="edgeStyle=none;html=1;startArrow=none;startFill=0;endArrow=classic;endFill=1;" edge="1" parent="6How5EvlI2Z_iBBIhnAw-1" source="eyBFVL7DAIwZeHv-XXco-46" target="eyBFVL7DAIwZeHv-XXco-39">
                    <mxGeometry relative="1" as="geometry">
                        <mxPoint x="470" y="590.4266666666668" as="targetPoint"/>
                    </mxGeometry>
                </mxCell>
                <mxCell id="eyBFVL7DAIwZeHv-XXco-46" value="表示" style="ellipse;shape=umlControl;whiteSpace=wrap;html=1;" vertex="1" parent="6How5EvlI2Z_iBBIhnAw-1">
                    <mxGeometry x="540" y="500.00000000000006" width="90" height="100" as="geometry"/>
                </mxCell>
                <mxCell id="eyBFVL7DAIwZeHv-XXco-47" value="エラー表示画面" style="shape=umlBoundary;whiteSpace=wrap;html=1;" vertex="1" parent="6How5EvlI2Z_iBBIhnAw-1">
                    <mxGeometry x="730" y="670" width="130" height="110" as="geometry"/>
                </mxCell>
                <mxCell id="eyBFVL7DAIwZeHv-XXco-48" style="edgeStyle=none;html=1;startArrow=none;startFill=0;endArrow=classic;endFill=1;" edge="1" parent="6How5EvlI2Z_iBBIhnAw-1" source="eyBFVL7DAIwZeHv-XXco-49" target="eyBFVL7DAIwZeHv-XXco-47">
                    <mxGeometry relative="1" as="geometry">
                        <mxPoint x="380" y="745.4266666666668" as="targetPoint"/>
                    </mxGeometry>
                </mxCell>
                <mxCell id="eyBFVL7DAIwZeHv-XXco-49" value="エラー表示" style="ellipse;shape=umlControl;whiteSpace=wrap;html=1;" vertex="1" parent="6How5EvlI2Z_iBBIhnAw-1">
                    <mxGeometry x="500" y="640" width="90" height="100" as="geometry"/>
                </mxCell>
            </root>
        </mxGraphModel>
    </diagram>
    <diagram name="チャット" id="fk32bxfwfrK4_u9ZWWz-">
        <mxGraphModel dx="454" dy="429" grid="1" gridSize="10" guides="1" tooltips="1" connect="1" arrows="1" fold="1" page="1" pageScale="1" pageWidth="827" pageHeight="1169" math="0" shadow="0">
            <root>
                <mxCell id="GyUptNhimLM9t0ycx9Vx-0"/>
                <mxCell id="GyUptNhimLM9t0ycx9Vx-1" parent="GyUptNhimLM9t0ycx9Vx-0"/>
                <mxCell id="GyUptNhimLM9t0ycx9Vx-2" style="edgeStyle=none;html=1;" edge="1" parent="GyUptNhimLM9t0ycx9Vx-1" source="GyUptNhimLM9t0ycx9Vx-4" target="GyUptNhimLM9t0ycx9Vx-6">
                    <mxGeometry relative="1" as="geometry"/>
                </mxCell>
                <mxCell id="GyUptNhimLM9t0ycx9Vx-3" style="edgeStyle=none;html=1;" edge="1" parent="GyUptNhimLM9t0ycx9Vx-1" source="GyUptNhimLM9t0ycx9Vx-4" target="GyUptNhimLM9t0ycx9Vx-5">
                    <mxGeometry relative="1" as="geometry"/>
                </mxCell>
                <mxCell id="GyUptNhimLM9t0ycx9Vx-4" value="パートナー企業" style="shape=umlActor;verticalLabelPosition=bottom;verticalAlign=top;html=1;" vertex="1" parent="GyUptNhimLM9t0ycx9Vx-1">
                    <mxGeometry x="140" y="310" width="30" height="60" as="geometry"/>
                </mxCell>
                <mxCell id="GyUptNhimLM9t0ycx9Vx-5" value="Boundary Object" style="shape=umlBoundary;whiteSpace=wrap;html=1;" vertex="1" parent="GyUptNhimLM9t0ycx9Vx-1">
                    <mxGeometry x="320" y="390" width="120" height="100" as="geometry"/>
                </mxCell>
                <mxCell id="GyUptNhimLM9t0ycx9Vx-6" value="Boundary Object" style="shape=umlBoundary;whiteSpace=wrap;html=1;" vertex="1" parent="GyUptNhimLM9t0ycx9Vx-1">
                    <mxGeometry x="320" y="230" width="120" height="100" as="geometry"/>
                </mxCell>
            </root>
        </mxGraphModel>
    </diagram>
    <diagram name="ログアウト" id="m4cTJkugS3dDnBh99YOI">
        <mxGraphModel dx="723" dy="547" grid="1" gridSize="10" guides="1" tooltips="1" connect="1" arrows="1" fold="1" page="1" pageScale="1" pageWidth="827" pageHeight="1169" math="0" shadow="0">
            <root>
                <mxCell id="TojlI1isPg8V045TgWEJ-0"/>
                <mxCell id="TojlI1isPg8V045TgWEJ-1" parent="TojlI1isPg8V045TgWEJ-0"/>
                <mxCell id="DqIpHv0sDiO-tSrWD7ID-0" value="パートナー企業" style="shape=umlActor;verticalLabelPosition=bottom;verticalAlign=top;html=1;outlineConnect=0;" vertex="1" parent="TojlI1isPg8V045TgWEJ-1">
                    <mxGeometry x="40" y="200" width="40" height="80" as="geometry"/>
                </mxCell>
                <mxCell id="DqIpHv0sDiO-tSrWD7ID-1" value="表示" style="ellipse;shape=umlControl;whiteSpace=wrap;html=1;" vertex="1" parent="TojlI1isPg8V045TgWEJ-1">
                    <mxGeometry x="390" y="250" width="80" height="90" as="geometry"/>
                </mxCell>
                <mxCell id="DqIpHv0sDiO-tSrWD7ID-2" value="Entity Object" style="ellipse;shape=umlEntity;whiteSpace=wrap;html=1;fillColor=#a20025;fontColor=#ffffff;strokeColor=#6F0000;" vertex="1" parent="TojlI1isPg8V045TgWEJ-1">
                    <mxGeometry x="710" y="355" width="80" height="80" as="geometry"/>
                </mxCell>
                <mxCell id="DqIpHv0sDiO-tSrWD7ID-3" value="マイページ" style="shape=umlBoundary;whiteSpace=wrap;html=1;" vertex="1" parent="TojlI1isPg8V045TgWEJ-1">
                    <mxGeometry x="220" y="200" width="100" height="80" as="geometry"/>
                </mxCell>
                <mxCell id="DqIpHv0sDiO-tSrWD7ID-4" value="マイページ" style="shape=umlBoundary;whiteSpace=wrap;html=1;" vertex="1" parent="TojlI1isPg8V045TgWEJ-1">
                    <mxGeometry x="220" y="520" width="100" height="80" as="geometry"/>
                </mxCell>
                <mxCell id="DqIpHv0sDiO-tSrWD7ID-5" style="edgeStyle=none;html=1;" edge="1" parent="TojlI1isPg8V045TgWEJ-1" source="DqIpHv0sDiO-tSrWD7ID-6" target="DqIpHv0sDiO-tSrWD7ID-8">
                    <mxGeometry relative="1" as="geometry"/>
                </mxCell>
                <mxCell id="DqIpHv0sDiO-tSrWD7ID-6" value="ログアウト&lt;br&gt;ダイアログ" style="shape=umlBoundary;whiteSpace=wrap;html=1;" vertex="1" parent="TojlI1isPg8V045TgWEJ-1">
                    <mxGeometry x="220" y="355" width="100" height="80" as="geometry"/>
                </mxCell>
                <mxCell id="DqIpHv0sDiO-tSrWD7ID-7" value="表示" style="ellipse;shape=umlControl;whiteSpace=wrap;html=1;" vertex="1" parent="TojlI1isPg8V045TgWEJ-1">
                    <mxGeometry x="440" y="445" width="80" height="90" as="geometry"/>
                </mxCell>
                <mxCell id="DqIpHv0sDiO-tSrWD7ID-8" value="ログアウト&lt;br&gt;処理" style="ellipse;shape=umlControl;whiteSpace=wrap;html=1;" vertex="1" parent="TojlI1isPg8V045TgWEJ-1">
                    <mxGeometry x="550" y="350" width="80" height="90" as="geometry"/>
                </mxCell>
                <mxCell id="DqIpHv0sDiO-tSrWD7ID-9" value="" style="endArrow=classic;html=1;" edge="1" parent="TojlI1isPg8V045TgWEJ-1" source="DqIpHv0sDiO-tSrWD7ID-0">
                    <mxGeometry width="50" height="50" relative="1" as="geometry">
                        <mxPoint x="120" y="190" as="sourcePoint"/>
                        <mxPoint x="220" y="240" as="targetPoint"/>
                    </mxGeometry>
                </mxCell>
                <mxCell id="DqIpHv0sDiO-tSrWD7ID-10" value="" style="endArrow=classic;html=1;exitX=1.007;exitY=0.458;exitDx=0;exitDy=0;exitPerimeter=0;" edge="1" parent="TojlI1isPg8V045TgWEJ-1" source="DqIpHv0sDiO-tSrWD7ID-3" target="DqIpHv0sDiO-tSrWD7ID-1">
                    <mxGeometry width="50" height="50" relative="1" as="geometry">
                        <mxPoint x="430" y="260" as="sourcePoint"/>
                        <mxPoint x="480" y="210" as="targetPoint"/>
                    </mxGeometry>
                </mxCell>
                <mxCell id="DqIpHv0sDiO-tSrWD7ID-11" value="" style="endArrow=classic;startArrow=classic;html=1;entryX=0;entryY=0.5;entryDx=0;entryDy=0;" edge="1" parent="TojlI1isPg8V045TgWEJ-1" source="DqIpHv0sDiO-tSrWD7ID-8" target="DqIpHv0sDiO-tSrWD7ID-2">
                    <mxGeometry width="50" height="50" relative="1" as="geometry">
                        <mxPoint x="680" y="330" as="sourcePoint"/>
                        <mxPoint x="560" y="300" as="targetPoint"/>
                    </mxGeometry>
                </mxCell>
                <mxCell id="DqIpHv0sDiO-tSrWD7ID-12" value="" style="endArrow=classic;html=1;exitX=-0.025;exitY=0.578;exitDx=0;exitDy=0;exitPerimeter=0;" edge="1" parent="TojlI1isPg8V045TgWEJ-1" source="DqIpHv0sDiO-tSrWD7ID-1">
                    <mxGeometry width="50" height="50" relative="1" as="geometry">
                        <mxPoint x="430" y="300" as="sourcePoint"/>
                        <mxPoint x="320" y="360" as="targetPoint"/>
                    </mxGeometry>
                </mxCell>
                <mxCell id="DqIpHv0sDiO-tSrWD7ID-13" value="" style="endArrow=classic;html=1;entryX=0.867;entryY=0.244;entryDx=0;entryDy=0;entryPerimeter=0;" edge="1" parent="TojlI1isPg8V045TgWEJ-1" source="DqIpHv0sDiO-tSrWD7ID-8" target="DqIpHv0sDiO-tSrWD7ID-7">
                    <mxGeometry width="50" height="50" relative="1" as="geometry">
                        <mxPoint x="560" y="280" as="sourcePoint"/>
                        <mxPoint x="480" y="250" as="targetPoint"/>
                    </mxGeometry>
                </mxCell>
                <mxCell id="DqIpHv0sDiO-tSrWD7ID-14" value="" style="endArrow=classic;html=1;exitX=0;exitY=0.659;exitDx=0;exitDy=0;exitPerimeter=0;entryX=1.007;entryY=0.508;entryDx=0;entryDy=0;entryPerimeter=0;" edge="1" parent="TojlI1isPg8V045TgWEJ-1" source="DqIpHv0sDiO-tSrWD7ID-7" target="DqIpHv0sDiO-tSrWD7ID-4">
                    <mxGeometry width="50" height="50" relative="1" as="geometry">
                        <mxPoint x="400" y="390" as="sourcePoint"/>
                        <mxPoint x="450" y="340" as="targetPoint"/>
                    </mxGeometry>
                </mxCell>
                <mxCell id="DqIpHv0sDiO-tSrWD7ID-15" value="ログアウトを&lt;br&gt;クリック▶" style="text;html=1;strokeColor=none;fillColor=none;align=center;verticalAlign=middle;whiteSpace=wrap;rounded=0;" vertex="1" parent="TojlI1isPg8V045TgWEJ-1">
                    <mxGeometry x="120" y="210" width="100" height="30" as="geometry"/>
                </mxCell>
                <mxCell id="DqIpHv0sDiO-tSrWD7ID-16" value="表示" style="ellipse;shape=umlControl;whiteSpace=wrap;html=1;" vertex="1" parent="TojlI1isPg8V045TgWEJ-1">
                    <mxGeometry x="500" y="585" width="80" height="90" as="geometry"/>
                </mxCell>
                <mxCell id="DqIpHv0sDiO-tSrWD7ID-17" value="ログアウト&lt;br&gt;処理エラー" style="shape=umlBoundary;whiteSpace=wrap;html=1;" vertex="1" parent="TojlI1isPg8V045TgWEJ-1">
                    <mxGeometry x="220" y="640" width="100" height="80" as="geometry"/>
                </mxCell>
                <mxCell id="DqIpHv0sDiO-tSrWD7ID-18" value="" style="endArrow=classic;html=1;entryX=1.027;entryY=0.458;entryDx=0;entryDy=0;entryPerimeter=0;exitX=0.017;exitY=0.504;exitDx=0;exitDy=0;exitPerimeter=0;" edge="1" parent="TojlI1isPg8V045TgWEJ-1" source="DqIpHv0sDiO-tSrWD7ID-16" target="DqIpHv0sDiO-tSrWD7ID-17">
                    <mxGeometry width="50" height="50" relative="1" as="geometry">
                        <mxPoint x="400" y="500" as="sourcePoint"/>
                        <mxPoint x="450" y="450" as="targetPoint"/>
                    </mxGeometry>
                </mxCell>
                <mxCell id="DqIpHv0sDiO-tSrWD7ID-19" value="" style="endArrow=classic;html=1;entryX=0.867;entryY=0.23;entryDx=0;entryDy=0;entryPerimeter=0;" edge="1" parent="TojlI1isPg8V045TgWEJ-1" source="DqIpHv0sDiO-tSrWD7ID-8" target="DqIpHv0sDiO-tSrWD7ID-16">
                    <mxGeometry width="50" height="50" relative="1" as="geometry">
                        <mxPoint x="560" y="280" as="sourcePoint"/>
                        <mxPoint x="450" y="450" as="targetPoint"/>
                    </mxGeometry>
                </mxCell>
                <mxCell id="DqIpHv0sDiO-tSrWD7ID-20" value="システム&lt;br&gt;不良時▼" style="text;html=1;align=center;verticalAlign=middle;resizable=0;points=[];autosize=1;strokeColor=none;fillColor=none;" vertex="1" parent="TojlI1isPg8V045TgWEJ-1">
                    <mxGeometry x="570" y="520" width="70" height="40" as="geometry"/>
                </mxCell>
                <mxCell id="DqIpHv0sDiO-tSrWD7ID-21" value="正常完了時▼" style="text;html=1;align=center;verticalAlign=middle;resizable=0;points=[];autosize=1;strokeColor=none;fillColor=none;" vertex="1" parent="TojlI1isPg8V045TgWEJ-1">
                    <mxGeometry x="440" y="420" width="100" height="30" as="geometry"/>
                </mxCell>
                <mxCell id="DqIpHv0sDiO-tSrWD7ID-22" value="" style="endArrow=classic;html=1;entryX=0.58;entryY=1.025;entryDx=0;entryDy=0;entryPerimeter=0;exitX=0.564;exitY=-0.037;exitDx=0;exitDy=0;exitPerimeter=0;" edge="1" parent="TojlI1isPg8V045TgWEJ-1" source="DqIpHv0sDiO-tSrWD7ID-6" target="DqIpHv0sDiO-tSrWD7ID-3">
                    <mxGeometry width="50" height="50" relative="1" as="geometry">
                        <mxPoint x="278" y="340" as="sourcePoint"/>
                        <mxPoint x="340" y="370" as="targetPoint"/>
                    </mxGeometry>
                </mxCell>
                <mxCell id="DqIpHv0sDiO-tSrWD7ID-23" value="" style="endArrow=classic;html=1;entryX=0;entryY=0.458;entryDx=0;entryDy=0;entryPerimeter=0;" edge="1" parent="TojlI1isPg8V045TgWEJ-1" target="DqIpHv0sDiO-tSrWD7ID-6" source="DqIpHv0sDiO-tSrWD7ID-0">
                    <mxGeometry width="50" height="50" relative="1" as="geometry">
                        <mxPoint x="120" y="240" as="sourcePoint"/>
                        <mxPoint x="340" y="370" as="targetPoint"/>
                    </mxGeometry>
                </mxCell>
                <mxCell id="DqIpHv0sDiO-tSrWD7ID-24" value="はい/いいえを選択▶" style="text;html=1;align=center;verticalAlign=middle;resizable=0;points=[];autosize=1;strokeColor=none;fillColor=none;" vertex="1" parent="TojlI1isPg8V045TgWEJ-1">
                    <mxGeometry x="60" y="350" width="130" height="30" as="geometry"/>
                </mxCell>
                <mxCell id="DqIpHv0sDiO-tSrWD7ID-25" value="いいえ&lt;br&gt;選択時▲" style="text;html=1;align=center;verticalAlign=middle;resizable=0;points=[];autosize=1;strokeColor=none;fillColor=none;" vertex="1" parent="TojlI1isPg8V045TgWEJ-1">
                    <mxGeometry x="280" y="290" width="70" height="40" as="geometry"/>
                </mxCell>
            </root>
        </mxGraphModel>
    </diagram>
    <diagram name="ログイン" id="5VITNHc6s9nJNYutQEoY">
        <mxGraphModel dx="1002" dy="547" grid="1" gridSize="10" guides="1" tooltips="1" connect="1" arrows="1" fold="1" page="1" pageScale="1" pageWidth="827" pageHeight="1169" math="0" shadow="0">
            <root>
                <mxCell id="z_uIZLmKid0DoB7CPF7r-0"/>
                <mxCell id="z_uIZLmKid0DoB7CPF7r-1" parent="z_uIZLmKid0DoB7CPF7r-0"/>
                <mxCell id="C2_UKh6dsdNoW-dgM5Np-0" value="パートナー企業" style="shape=umlActor;verticalLabelPosition=bottom;verticalAlign=top;html=1;outlineConnect=0;" vertex="1" parent="z_uIZLmKid0DoB7CPF7r-1">
                    <mxGeometry x="30" y="200" width="40" height="80" as="geometry"/>
                </mxCell>
                <mxCell id="C2_UKh6dsdNoW-dgM5Np-1" value="表示" style="ellipse;shape=umlControl;whiteSpace=wrap;html=1;" vertex="1" parent="z_uIZLmKid0DoB7CPF7r-1">
                    <mxGeometry x="380" y="290" width="80" height="90" as="geometry"/>
                </mxCell>
                <mxCell id="C2_UKh6dsdNoW-dgM5Np-2" value="Entity Object" style="ellipse;shape=umlEntity;whiteSpace=wrap;html=1;fillColor=#a20025;fontColor=#ffffff;strokeColor=#6F0000;" vertex="1" parent="z_uIZLmKid0DoB7CPF7r-1">
                    <mxGeometry x="640" y="200" width="80" height="80" as="geometry"/>
                </mxCell>
                <mxCell id="C2_UKh6dsdNoW-dgM5Np-3" value="ログイン画面" style="shape=umlBoundary;whiteSpace=wrap;html=1;" vertex="1" parent="z_uIZLmKid0DoB7CPF7r-1">
                    <mxGeometry x="220" y="200" width="100" height="80" as="geometry"/>
                </mxCell>
                <mxCell id="C2_UKh6dsdNoW-dgM5Np-4" value="無効な&lt;br&gt;ログイン&lt;br&gt;エラー画面" style="shape=umlBoundary;whiteSpace=wrap;html=1;" vertex="1" parent="z_uIZLmKid0DoB7CPF7r-1">
                    <mxGeometry x="220" y="440" width="100" height="80" as="geometry"/>
                </mxCell>
                <mxCell id="C2_UKh6dsdNoW-dgM5Np-5" value="マイページ" style="shape=umlBoundary;whiteSpace=wrap;html=1;" vertex="1" parent="z_uIZLmKid0DoB7CPF7r-1">
                    <mxGeometry x="220" y="320" width="100" height="80" as="geometry"/>
                </mxCell>
                <mxCell id="C2_UKh6dsdNoW-dgM5Np-6" value="表示" style="ellipse;shape=umlControl;whiteSpace=wrap;html=1;" vertex="1" parent="z_uIZLmKid0DoB7CPF7r-1">
                    <mxGeometry x="440" y="390" width="80" height="90" as="geometry"/>
                </mxCell>
                <mxCell id="C2_UKh6dsdNoW-dgM5Np-7" value="ユーザー認証" style="ellipse;shape=umlControl;whiteSpace=wrap;html=1;" vertex="1" parent="z_uIZLmKid0DoB7CPF7r-1">
                    <mxGeometry x="520" y="190" width="80" height="90" as="geometry"/>
                </mxCell>
                <mxCell id="C2_UKh6dsdNoW-dgM5Np-8" value="" style="endArrow=classic;html=1;" edge="1" parent="z_uIZLmKid0DoB7CPF7r-1" source="C2_UKh6dsdNoW-dgM5Np-0">
                    <mxGeometry width="50" height="50" relative="1" as="geometry">
                        <mxPoint x="120" y="190" as="sourcePoint"/>
                        <mxPoint x="220" y="240" as="targetPoint"/>
                    </mxGeometry>
                </mxCell>
                <mxCell id="C2_UKh6dsdNoW-dgM5Np-9" value="" style="endArrow=classic;html=1;exitX=1.007;exitY=0.458;exitDx=0;exitDy=0;exitPerimeter=0;entryX=-0.008;entryY=0.533;entryDx=0;entryDy=0;entryPerimeter=0;" edge="1" parent="z_uIZLmKid0DoB7CPF7r-1" source="C2_UKh6dsdNoW-dgM5Np-3" target="C2_UKh6dsdNoW-dgM5Np-7">
                    <mxGeometry width="50" height="50" relative="1" as="geometry">
                        <mxPoint x="430" y="260" as="sourcePoint"/>
                        <mxPoint x="480" y="210" as="targetPoint"/>
                    </mxGeometry>
                </mxCell>
                <mxCell id="C2_UKh6dsdNoW-dgM5Np-10" value="" style="endArrow=classic;startArrow=classic;html=1;entryX=0;entryY=0.5;entryDx=0;entryDy=0;" edge="1" parent="z_uIZLmKid0DoB7CPF7r-1" target="C2_UKh6dsdNoW-dgM5Np-2">
                    <mxGeometry width="50" height="50" relative="1" as="geometry">
                        <mxPoint x="600" y="240" as="sourcePoint"/>
                        <mxPoint x="480" y="210" as="targetPoint"/>
                    </mxGeometry>
                </mxCell>
                <mxCell id="C2_UKh6dsdNoW-dgM5Np-11" value="" style="endArrow=classic;html=1;entryX=1.025;entryY=0.526;entryDx=0;entryDy=0;entryPerimeter=0;" edge="1" parent="z_uIZLmKid0DoB7CPF7r-1" target="C2_UKh6dsdNoW-dgM5Np-1">
                    <mxGeometry width="50" height="50" relative="1" as="geometry">
                        <mxPoint x="560" y="280" as="sourcePoint"/>
                        <mxPoint x="480" y="250" as="targetPoint"/>
                    </mxGeometry>
                </mxCell>
                <mxCell id="C2_UKh6dsdNoW-dgM5Np-12" value="" style="endArrow=classic;html=1;exitX=-0.025;exitY=0.578;exitDx=0;exitDy=0;exitPerimeter=0;" edge="1" parent="z_uIZLmKid0DoB7CPF7r-1" source="C2_UKh6dsdNoW-dgM5Np-1">
                    <mxGeometry width="50" height="50" relative="1" as="geometry">
                        <mxPoint x="430" y="300" as="sourcePoint"/>
                        <mxPoint x="320" y="360" as="targetPoint"/>
                    </mxGeometry>
                </mxCell>
                <mxCell id="C2_UKh6dsdNoW-dgM5Np-13" value="" style="endArrow=classic;html=1;entryX=0.867;entryY=0.244;entryDx=0;entryDy=0;entryPerimeter=0;" edge="1" parent="z_uIZLmKid0DoB7CPF7r-1" target="C2_UKh6dsdNoW-dgM5Np-6">
                    <mxGeometry width="50" height="50" relative="1" as="geometry">
                        <mxPoint x="560" y="280" as="sourcePoint"/>
                        <mxPoint x="480" y="250" as="targetPoint"/>
                    </mxGeometry>
                </mxCell>
                <mxCell id="C2_UKh6dsdNoW-dgM5Np-14" value="" style="endArrow=classic;html=1;exitX=-0.008;exitY=0.444;exitDx=0;exitDy=0;exitPerimeter=0;entryX=1.007;entryY=0.508;entryDx=0;entryDy=0;entryPerimeter=0;" edge="1" parent="z_uIZLmKid0DoB7CPF7r-1" source="C2_UKh6dsdNoW-dgM5Np-6" target="C2_UKh6dsdNoW-dgM5Np-4">
                    <mxGeometry width="50" height="50" relative="1" as="geometry">
                        <mxPoint x="400" y="390" as="sourcePoint"/>
                        <mxPoint x="450" y="340" as="targetPoint"/>
                    </mxGeometry>
                </mxCell>
                <mxCell id="C2_UKh6dsdNoW-dgM5Np-15" value="ユーザー情報を入力▶" style="text;html=1;strokeColor=none;fillColor=none;align=center;verticalAlign=middle;whiteSpace=wrap;rounded=0;" vertex="1" parent="z_uIZLmKid0DoB7CPF7r-1">
                    <mxGeometry x="110" y="250" width="140" height="20" as="geometry"/>
                </mxCell>
                <mxCell id="C2_UKh6dsdNoW-dgM5Np-16" value="表示" style="ellipse;shape=umlControl;whiteSpace=wrap;html=1;" vertex="1" parent="z_uIZLmKid0DoB7CPF7r-1">
                    <mxGeometry x="480" y="510" width="80" height="90" as="geometry"/>
                </mxCell>
                <mxCell id="C2_UKh6dsdNoW-dgM5Np-17" value="ログイン&lt;br&gt;エラー画面" style="shape=umlBoundary;whiteSpace=wrap;html=1;" vertex="1" parent="z_uIZLmKid0DoB7CPF7r-1">
                    <mxGeometry x="220" y="560" width="100" height="80" as="geometry"/>
                </mxCell>
                <mxCell id="C2_UKh6dsdNoW-dgM5Np-18" value="" style="endArrow=classic;html=1;entryX=1.027;entryY=0.458;entryDx=0;entryDy=0;entryPerimeter=0;exitX=0.017;exitY=0.504;exitDx=0;exitDy=0;exitPerimeter=0;" edge="1" parent="z_uIZLmKid0DoB7CPF7r-1" source="C2_UKh6dsdNoW-dgM5Np-16" target="C2_UKh6dsdNoW-dgM5Np-17">
                    <mxGeometry width="50" height="50" relative="1" as="geometry">
                        <mxPoint x="400" y="500" as="sourcePoint"/>
                        <mxPoint x="450" y="450" as="targetPoint"/>
                    </mxGeometry>
                </mxCell>
                <mxCell id="C2_UKh6dsdNoW-dgM5Np-19" value="" style="endArrow=classic;html=1;entryX=0.867;entryY=0.23;entryDx=0;entryDy=0;entryPerimeter=0;" edge="1" parent="z_uIZLmKid0DoB7CPF7r-1" target="C2_UKh6dsdNoW-dgM5Np-16">
                    <mxGeometry width="50" height="50" relative="1" as="geometry">
                        <mxPoint x="560" y="280" as="sourcePoint"/>
                        <mxPoint x="450" y="450" as="targetPoint"/>
                    </mxGeometry>
                </mxCell>
                <mxCell id="C2_UKh6dsdNoW-dgM5Np-20" value="無効情報&lt;br&gt;入力時▼" style="text;html=1;align=center;verticalAlign=middle;resizable=0;points=[];autosize=1;strokeColor=none;fillColor=none;" vertex="1" parent="z_uIZLmKid0DoB7CPF7r-1">
                    <mxGeometry x="485" y="350" width="70" height="40" as="geometry"/>
                </mxCell>
                <mxCell id="C2_UKh6dsdNoW-dgM5Np-21" value="システム不良時▼" style="text;html=1;align=center;verticalAlign=middle;resizable=0;points=[];autosize=1;strokeColor=none;fillColor=none;" vertex="1" parent="z_uIZLmKid0DoB7CPF7r-1">
                    <mxGeometry x="525" y="475" width="120" height="30" as="geometry"/>
                </mxCell>
                <mxCell id="C2_UKh6dsdNoW-dgM5Np-22" value="正常完了時▼" style="text;html=1;align=center;verticalAlign=middle;resizable=0;points=[];autosize=1;strokeColor=none;fillColor=none;" vertex="1" parent="z_uIZLmKid0DoB7CPF7r-1">
                    <mxGeometry x="440" y="280" width="100" height="30" as="geometry"/>
                </mxCell>
            </root>
        </mxGraphModel>
    </diagram>
    <diagram name="新規登録" id="HsREoUSOnRzb0FD5-Vjx">
        <mxGraphModel dx="1002" dy="547" grid="1" gridSize="10" guides="1" tooltips="1" connect="1" arrows="1" fold="1" page="1" pageScale="1" pageWidth="827" pageHeight="1169" math="0" shadow="0">
            <root>
                <mxCell id="DX7NVdZm8c1ugF_eBVML-0"/>
                <mxCell id="DX7NVdZm8c1ugF_eBVML-1" parent="DX7NVdZm8c1ugF_eBVML-0"/>
                <mxCell id="uauXfQR7GUxvZV9IvnAs-0" value="パートナー企業" style="shape=umlActor;verticalLabelPosition=bottom;verticalAlign=top;html=1;outlineConnect=0;" vertex="1" parent="DX7NVdZm8c1ugF_eBVML-1">
                    <mxGeometry x="30" y="200" width="40" height="80" as="geometry"/>
                </mxCell>
                <mxCell id="uauXfQR7GUxvZV9IvnAs-1" value="表示" style="ellipse;shape=umlControl;whiteSpace=wrap;html=1;" vertex="1" parent="DX7NVdZm8c1ugF_eBVML-1">
                    <mxGeometry x="380" y="290" width="80" height="90" as="geometry"/>
                </mxCell>
                <mxCell id="uauXfQR7GUxvZV9IvnAs-2" value="Entity Object" style="ellipse;shape=umlEntity;whiteSpace=wrap;html=1;fillColor=#a20025;fontColor=#ffffff;strokeColor=#6F0000;" vertex="1" parent="DX7NVdZm8c1ugF_eBVML-1">
                    <mxGeometry x="640" y="200" width="80" height="80" as="geometry"/>
                </mxCell>
                <mxCell id="uauXfQR7GUxvZV9IvnAs-3" value="新規登録画面" style="shape=umlBoundary;whiteSpace=wrap;html=1;" vertex="1" parent="DX7NVdZm8c1ugF_eBVML-1">
                    <mxGeometry x="220" y="200" width="100" height="80" as="geometry"/>
                </mxCell>
                <mxCell id="uauXfQR7GUxvZV9IvnAs-4" value="メール&lt;br&gt;アドレス重複&lt;br&gt;エラー画面" style="shape=umlBoundary;whiteSpace=wrap;html=1;" vertex="1" parent="DX7NVdZm8c1ugF_eBVML-1">
                    <mxGeometry x="220" y="440" width="100" height="80" as="geometry"/>
                </mxCell>
                <mxCell id="uauXfQR7GUxvZV9IvnAs-5" value="ログイン画面" style="shape=umlBoundary;whiteSpace=wrap;html=1;" vertex="1" parent="DX7NVdZm8c1ugF_eBVML-1">
                    <mxGeometry x="220" y="320" width="100" height="80" as="geometry"/>
                </mxCell>
                <mxCell id="uauXfQR7GUxvZV9IvnAs-6" value="表示" style="ellipse;shape=umlControl;whiteSpace=wrap;html=1;" vertex="1" parent="DX7NVdZm8c1ugF_eBVML-1">
                    <mxGeometry x="440" y="390" width="80" height="90" as="geometry"/>
                </mxCell>
                <mxCell id="uauXfQR7GUxvZV9IvnAs-7" value="会員登録" style="ellipse;shape=umlControl;whiteSpace=wrap;html=1;" vertex="1" parent="DX7NVdZm8c1ugF_eBVML-1">
                    <mxGeometry x="520" y="190" width="80" height="90" as="geometry"/>
                </mxCell>
                <mxCell id="uauXfQR7GUxvZV9IvnAs-8" value="" style="endArrow=classic;html=1;" edge="1" parent="DX7NVdZm8c1ugF_eBVML-1" source="uauXfQR7GUxvZV9IvnAs-0">
                    <mxGeometry width="50" height="50" relative="1" as="geometry">
                        <mxPoint x="120" y="190" as="sourcePoint"/>
                        <mxPoint x="220" y="239.9999999999999" as="targetPoint"/>
                    </mxGeometry>
                </mxCell>
                <mxCell id="uauXfQR7GUxvZV9IvnAs-9" value="" style="endArrow=classic;html=1;exitX=1.007;exitY=0.458;exitDx=0;exitDy=0;exitPerimeter=0;entryX=-0.008;entryY=0.533;entryDx=0;entryDy=0;entryPerimeter=0;" edge="1" parent="DX7NVdZm8c1ugF_eBVML-1" source="uauXfQR7GUxvZV9IvnAs-3" target="uauXfQR7GUxvZV9IvnAs-7">
                    <mxGeometry width="50" height="50" relative="1" as="geometry">
                        <mxPoint x="430" y="260" as="sourcePoint"/>
                        <mxPoint x="480" y="210" as="targetPoint"/>
                    </mxGeometry>
                </mxCell>
                <mxCell id="uauXfQR7GUxvZV9IvnAs-10" value="" style="endArrow=classic;startArrow=classic;html=1;entryX=0;entryY=0.5;entryDx=0;entryDy=0;" edge="1" parent="DX7NVdZm8c1ugF_eBVML-1" target="uauXfQR7GUxvZV9IvnAs-2">
                    <mxGeometry width="50" height="50" relative="1" as="geometry">
                        <mxPoint x="600" y="239.9999999999999" as="sourcePoint"/>
                        <mxPoint x="480" y="210" as="targetPoint"/>
                    </mxGeometry>
                </mxCell>
                <mxCell id="uauXfQR7GUxvZV9IvnAs-11" value="" style="endArrow=classic;html=1;entryX=1.025;entryY=0.526;entryDx=0;entryDy=0;entryPerimeter=0;" edge="1" parent="DX7NVdZm8c1ugF_eBVML-1" target="uauXfQR7GUxvZV9IvnAs-1">
                    <mxGeometry width="50" height="50" relative="1" as="geometry">
                        <mxPoint x="560" y="280" as="sourcePoint"/>
                        <mxPoint x="480" y="250" as="targetPoint"/>
                    </mxGeometry>
                </mxCell>
                <mxCell id="uauXfQR7GUxvZV9IvnAs-12" value="" style="endArrow=classic;html=1;exitX=-0.025;exitY=0.578;exitDx=0;exitDy=0;exitPerimeter=0;" edge="1" parent="DX7NVdZm8c1ugF_eBVML-1" source="uauXfQR7GUxvZV9IvnAs-1">
                    <mxGeometry width="50" height="50" relative="1" as="geometry">
                        <mxPoint x="430" y="300" as="sourcePoint"/>
                        <mxPoint x="320" y="360" as="targetPoint"/>
                    </mxGeometry>
                </mxCell>
                <mxCell id="uauXfQR7GUxvZV9IvnAs-13" value="" style="endArrow=classic;html=1;entryX=0.867;entryY=0.244;entryDx=0;entryDy=0;entryPerimeter=0;" edge="1" parent="DX7NVdZm8c1ugF_eBVML-1" target="uauXfQR7GUxvZV9IvnAs-6">
                    <mxGeometry width="50" height="50" relative="1" as="geometry">
                        <mxPoint x="560" y="280" as="sourcePoint"/>
                        <mxPoint x="480" y="250" as="targetPoint"/>
                    </mxGeometry>
                </mxCell>
                <mxCell id="uauXfQR7GUxvZV9IvnAs-14" value="" style="endArrow=classic;html=1;exitX=-0.008;exitY=0.444;exitDx=0;exitDy=0;exitPerimeter=0;entryX=1.007;entryY=0.508;entryDx=0;entryDy=0;entryPerimeter=0;" edge="1" parent="DX7NVdZm8c1ugF_eBVML-1" source="uauXfQR7GUxvZV9IvnAs-6" target="uauXfQR7GUxvZV9IvnAs-4">
                    <mxGeometry width="50" height="50" relative="1" as="geometry">
                        <mxPoint x="400" y="390" as="sourcePoint"/>
                        <mxPoint x="450" y="340" as="targetPoint"/>
                    </mxGeometry>
                </mxCell>
                <mxCell id="uauXfQR7GUxvZV9IvnAs-15" value="会員情報を入力▶" style="text;html=1;strokeColor=none;fillColor=none;align=center;verticalAlign=middle;whiteSpace=wrap;rounded=0;" vertex="1" parent="DX7NVdZm8c1ugF_eBVML-1">
                    <mxGeometry x="120" y="250" width="100" height="30" as="geometry"/>
                </mxCell>
                <mxCell id="uauXfQR7GUxvZV9IvnAs-16" value="表示" style="ellipse;shape=umlControl;whiteSpace=wrap;html=1;" vertex="1" parent="DX7NVdZm8c1ugF_eBVML-1">
                    <mxGeometry x="480" y="510" width="80" height="90" as="geometry"/>
                </mxCell>
                <mxCell id="uauXfQR7GUxvZV9IvnAs-17" value="電話番号重複エラー画面" style="shape=umlBoundary;whiteSpace=wrap;html=1;" vertex="1" parent="DX7NVdZm8c1ugF_eBVML-1">
                    <mxGeometry x="220" y="560" width="100" height="80" as="geometry"/>
                </mxCell>
                <mxCell id="uauXfQR7GUxvZV9IvnAs-18" value="" style="endArrow=classic;html=1;entryX=1.027;entryY=0.458;entryDx=0;entryDy=0;entryPerimeter=0;exitX=0.017;exitY=0.504;exitDx=0;exitDy=0;exitPerimeter=0;" edge="1" parent="DX7NVdZm8c1ugF_eBVML-1" source="uauXfQR7GUxvZV9IvnAs-16" target="uauXfQR7GUxvZV9IvnAs-17">
                    <mxGeometry width="50" height="50" relative="1" as="geometry">
                        <mxPoint x="400" y="500" as="sourcePoint"/>
                        <mxPoint x="450" y="450" as="targetPoint"/>
                    </mxGeometry>
                </mxCell>
                <mxCell id="uauXfQR7GUxvZV9IvnAs-19" value="" style="endArrow=classic;html=1;entryX=0.867;entryY=0.23;entryDx=0;entryDy=0;entryPerimeter=0;" edge="1" parent="DX7NVdZm8c1ugF_eBVML-1" target="uauXfQR7GUxvZV9IvnAs-16">
                    <mxGeometry width="50" height="50" relative="1" as="geometry">
                        <mxPoint x="560" y="280" as="sourcePoint"/>
                        <mxPoint x="450" y="450" as="targetPoint"/>
                    </mxGeometry>
                </mxCell>
                <mxCell id="uauXfQR7GUxvZV9IvnAs-20" value="メール&lt;br&gt;アドレス&lt;br&gt;重複時▼" style="text;html=1;align=center;verticalAlign=middle;resizable=0;points=[];autosize=1;strokeColor=none;fillColor=none;" vertex="1" parent="DX7NVdZm8c1ugF_eBVML-1">
                    <mxGeometry x="485" y="340" width="70" height="60" as="geometry"/>
                </mxCell>
                <mxCell id="uauXfQR7GUxvZV9IvnAs-21" value="電話番号&lt;br&gt;重複時▼" style="text;html=1;align=center;verticalAlign=middle;resizable=0;points=[];autosize=1;strokeColor=none;fillColor=none;" vertex="1" parent="DX7NVdZm8c1ugF_eBVML-1">
                    <mxGeometry x="550" y="470" width="70" height="40" as="geometry"/>
                </mxCell>
                <mxCell id="uauXfQR7GUxvZV9IvnAs-22" value="正常完了時▼" style="text;html=1;align=center;verticalAlign=middle;resizable=0;points=[];autosize=1;strokeColor=none;fillColor=none;" vertex="1" parent="DX7NVdZm8c1ugF_eBVML-1">
                    <mxGeometry x="440" y="280" width="100" height="30" as="geometry"/>
                </mxCell>
            </root>
        </mxGraphModel>
    </diagram>
</mxfile>